<?xml version="1.0" standalone="no"?><!DOCTYPE svg PUBLIC "-//W3C//DTD SVG 1.1//EN" "http://www.w3.org/Graphics/SVG/1.1/DTD/svg11.dtd"><svg t="1527925015850" class="icon" style="" viewBox="0 0 1024 1024" version="1.1" xmlns="http://www.w3.org/2000/svg" p-id="1036" xmlns:xlink="http://www.w3.org/1999/xlink" width="64" height="64"><defs><style type="text/css"></style></defs><path d="M512 85.333333c138.666667 0 262.4 66.133333 341.333333 170.666667l-170.666667 0c-12.8 0-21.333333 8.533333-21.333333 21.333333 0 12.8 8.533333 21.333333 21.333333 21.333333l213.333333 0c12.8 0 21.333333-8.533333 21.333333-21.333333L917.333333 64c0-12.8-8.533333-21.333333-21.333333-21.333333-12.8 0-21.333333 8.533333-21.333333 21.333333l0 151.466667C789.333333 108.8 659.2 42.666667 512 42.666667 251.733333 42.666667 42.666667 251.733333 42.666667 512c0 12.8 8.533333 21.333333 21.333333 21.333333 12.8 0 21.333333-8.533333 21.333333-21.333333C85.333333 277.333333 277.333333 85.333333 512 85.333333zM960 490.666667c-12.8 0-21.333333 8.533333-21.333333 21.333333 0 234.666667-192 426.666667-426.666667 426.666667-138.666667 0-262.4-66.133333-341.333333-170.666667l170.666667 0c12.8 0 21.333333-8.533333 21.333333-21.333333 0-12.8-8.533333-21.333333-21.333333-21.333333L128 725.333333c-12.8 0-21.333333 8.533333-21.333333 21.333333l0 213.333333c0 12.8 8.533333 21.333333 21.333333 21.333333 12.8 0 21.333333-8.533333 21.333333-21.333333l0-151.466667c85.333333 104.533333 215.466667 172.8 362.666667 172.8 260.266667 0 469.333333-209.066667 469.333333-469.333333C981.333333 499.2 972.8 490.666667 960 490.666667z" p-id="1037"></path></svg>